# MagicaVoxel @ Ephtracy

# group
o 

# material
mtllib FrogSpaceship.mtl
usemtl palette

# normals
vn -1 0 0
vn 1 0 0
vn 0 0 1
vn 0 0 -1
vn 0 -1 0
vn 0 1 0

# texcoords
vt 0.970703 0.5
vt 0.974609 0.5
vt 0.978516 0.5
vt 0.982422 0.5
vt 0.986328 0.5

# verts
v 0 2 0
v 0 2 -0.2
v 0 2.1 0
v 0 2.1 -0.2
v 0 2.5 0
v 0 2.5 -0.1
v 0 2.5 -0.2
v 0 2.6 -0.1
v 0 2.6 -0.2
v 0 2.7 0
v 0 2.7 -0.2
v 0 2.8 0
v 0 2.8 -0.2
v 0.1 2.1 0
v 0.1 2.1 -0.1
v 0.1 2.1 -0.2
v 0.1 2.2 0
v 0.1 2.2 -0.1
v 0.1 2.2 -0.2
v 0.1 2.2 -0.3
v 0.1 2.3 0
v 0.1 2.3 -0.1
v 0.1 2.4 -0.1
v 0.1 2.4 -0.3
v 0.1 2.5 -0.2
v 0.1 2.5 -0.3
v 0.1 2.6 -0.2
v 0.1 2.6 -0.3
v 0.2 2.4 -0.1
v 0.2 2.4 -0.3
v 0.2 2.5 -0.1
v 0.2 2.5 -0.3
v 0.2 2.6 -0.1
v 0.2 2.6 -0.3
v 0.2 2.7 -0.1
v 0.2 2.7 -0.3
v 0.2 2.7 -0.4
v 0.2 2.8 -0.3
v 0.2 2.8 -0.4
v 0.3 2.2 -0.1
v 0.3 2.2 -0.3
v 0.3 2.3 0
v 0.3 2.3 -0.1
v 0.3 2.3 -0.3
v 0.3 2.3 -0.4
v 0.3 2.4 -0.1
v 0.3 2.4 -0.3
v 0.3 2.6 -0.1
v 0.3 2.6 -0.3
v 0.3 2.7 0
v 0.3 2.7 -0.1
v 0.3 2.7 -0.2
v 0.3 2.7 -0.3
v 0.3 2.7 -0.4
v 0.3 2.8 -0.1
v 0.3 2.8 -0.2
v 0.3 2.8 -0.3
v 0.5 2.7 -0.3
v 0.5 2.7 -0.4
v 0.5 2.8 -0.3
v 0.5 2.8 -0.4
v 0.6 2 0
v 0.6 2 -0.2
v 0.6 2.1 0
v 0.6 2.1 -0.1
v 0.6 2.1 -0.2
v 0.6 2.2 0
v 0.6 2.2 -0.1
v 0.6 2.2 -0.2
v 0.6 2.2 -0.3
v 0.6 2.3 0
v 0.6 2.3 -0.1
v 0.6 2.3 -0.2
v 0.6 2.3 -0.3
v 0.7 2.5 0
v 0.7 2.5 -0.1
v 0.7 2.6 0
v 0.7 2.6 -0.1
v 0.7 2.6 -0.2
v 0.7 2.7 0
v 0.7 2.7 -0.2
v 0.7 2.8 0
v 0.7 2.8 -0.2
v 0.1 2.5 0
v 0.1 2.5 -0.1
v 0.1 2.6 -0.1
v 0.1 2.6 -0.2
v 0.1 2.7 0
v 0.1 2.7 -0.2
v 0.1 2.8 0
v 0.1 2.8 -0.2
v 0.2 2 0
v 0.2 2 -0.2
v 0.2 2.1 0
v 0.2 2.1 -0.1
v 0.2 2.1 -0.2
v 0.2 2.2 0
v 0.2 2.2 -0.1
v 0.2 2.2 -0.2
v 0.2 2.2 -0.3
v 0.2 2.3 0
v 0.2 2.3 -0.1
v 0.2 2.3 -0.3
v 0.3 2.7 -0.3
v 0.3 2.7 -0.4
v 0.3 2.8 -0.3
v 0.3 2.8 -0.4
v 0.5 2.2 -0.1
v 0.5 2.2 -0.3
v 0.5 2.3 0
v 0.5 2.3 -0.1
v 0.5 2.3 -0.3
v 0.5 2.3 -0.4
v 0.5 2.4 -0.1
v 0.5 2.5 -0.1
v 0.5 2.5 -0.3
v 0.5 2.6 -0.1
v 0.5 2.6 -0.3
v 0.5 2.7 0
v 0.5 2.7 -0.1
v 0.5 2.7 -0.2
v 0.5 2.7 -0.3
v 0.5 2.7 -0.4
v 0.5 2.8 -0.1
v 0.5 2.8 -0.2
v 0.5 2.8 -0.3
v 0.6 2.4 -0.1
v 0.6 2.4 -0.2
v 0.6 2.4 -0.3
v 0.6 2.5 -0.1
v 0.6 2.5 -0.2
v 0.6 2.5 -0.3
v 0.6 2.6 -0.1
v 0.6 2.6 -0.2
v 0.6 2.6 -0.3
v 0.6 2.7 -0.1
v 0.6 2.7 -0.2
v 0.6 2.7 -0.3
v 0.6 2.7 -0.4
v 0.6 2.8 -0.3
v 0.6 2.8 -0.4
v 0.7 2.1 0
v 0.7 2.1 -0.1
v 0.7 2.1 -0.2
v 0.7 2.2 0
v 0.7 2.2 -0.1
v 0.7 2.2 -0.2
v 0.7 2.2 -0.3
v 0.7 2.3 0
v 0.7 2.3 -0.1
v 0.7 2.3 -0.2
v 0.7 2.3 -0.3
v 0.7 2.4 -0.1
v 0.7 2.4 -0.3
v 0.7 2.5 -0.2
v 0.7 2.5 -0.3
v 0.7 2.6 -0.2
v 0.7 2.6 -0.3
v 0.8 2 0
v 0.8 2 -0.2
v 0.8 2.1 0
v 0.8 2.1 -0.2
v 0.8 2.5 0
v 0.8 2.5 -0.2
v 0.8 2.6 0
v 0.8 2.6 -0.2
v 0.8 2.7 0
v 0.8 2.7 -0.2
v 0.8 2.8 0
v 0.8 2.8 -0.2
v 0 2 0
v 0 2.1 0
v 0 2.5 0
v 0 2.7 0
v 0 2.8 0
v 0.1 2.1 0
v 0.1 2.2 0
v 0.1 2.3 0
v 0.1 2.5 0
v 0.1 2.7 0
v 0.1 2.8 0
v 0.2 2 0
v 0.2 2.1 0
v 0.2 2.2 0
v 0.2 2.3 0
v 0.3 2.3 0
v 0.3 2.7 0
v 0.5 2.3 0
v 0.5 2.7 0
v 0.6 2 0
v 0.6 2.1 0
v 0.6 2.2 0
v 0.6 2.3 0
v 0.7 2.1 0
v 0.7 2.2 0
v 0.7 2.3 0
v 0.7 2.5 0
v 0.7 2.6 0
v 0.7 2.7 0
v 0.7 2.8 0
v 0.8 2 0
v 0.8 2.1 0
v 0.8 2.5 0
v 0.8 2.6 0
v 0.8 2.7 0
v 0.8 2.8 0
v 0.1 2.3 -0.1
v 0.1 2.4 -0.1
v 0.1 2.5 -0.1
v 0.1 2.6 -0.1
v 0.2 2.3 -0.1
v 0.2 2.4 -0.1
v 0.2 2.5 -0.1
v 0.2 2.6 -0.1
v 0.2 2.7 -0.1
v 0.3 2.2 -0.1
v 0.3 2.3 -0.1
v 0.3 2.4 -0.1
v 0.3 2.6 -0.1
v 0.3 2.7 -0.1
v 0.3 2.8 -0.1
v 0.5 2.2 -0.1
v 0.5 2.3 -0.1
v 0.5 2.4 -0.1
v 0.5 2.5 -0.1
v 0.5 2.6 -0.1
v 0.5 2.7 -0.1
v 0.5 2.8 -0.1
v 0.6 2.3 -0.1
v 0.6 2.4 -0.1
v 0.6 2.5 -0.1
v 0.6 2.6 -0.1
v 0.6 2.7 -0.1
v 0.7 2.3 -0.1
v 0.7 2.4 -0.1
v 0.7 2.5 -0.1
v 0.7 2.6 -0.1
v 0.2 2.7 -0.3
v 0.2 2.8 -0.3
v 0.3 2.7 -0.3
v 0.3 2.8 -0.3
v 0.5 2.7 -0.3
v 0.5 2.8 -0.3
v 0.6 2.7 -0.3
v 0.6 2.8 -0.3
v 0 2 -0.2
v 0 2.1 -0.2
v 0 2.5 -0.2
v 0 2.6 -0.2
v 0 2.7 -0.2
v 0 2.8 -0.2
v 0.1 2.1 -0.2
v 0.1 2.2 -0.2
v 0.1 2.5 -0.2
v 0.1 2.6 -0.2
v 0.1 2.7 -0.2
v 0.1 2.8 -0.2
v 0.2 2 -0.2
v 0.2 2.1 -0.2
v 0.2 2.2 -0.2
v 0.6 2 -0.2
v 0.6 2.1 -0.2
v 0.6 2.2 -0.2
v 0.7 2.1 -0.2
v 0.7 2.2 -0.2
v 0.7 2.5 -0.2
v 0.7 2.6 -0.2
v 0.7 2.7 -0.2
v 0.7 2.8 -0.2
v 0.8 2 -0.2
v 0.8 2.1 -0.2
v 0.8 2.5 -0.2
v 0.8 2.6 -0.2
v 0.8 2.7 -0.2
v 0.8 2.8 -0.2
v 0.1 2.2 -0.3
v 0.1 2.4 -0.3
v 0.1 2.5 -0.3
v 0.1 2.6 -0.3
v 0.2 2.2 -0.3
v 0.2 2.3 -0.3
v 0.2 2.4 -0.3
v 0.2 2.5 -0.3
v 0.2 2.6 -0.3
v 0.2 2.7 -0.3
v 0.3 2.2 -0.3
v 0.3 2.3 -0.3
v 0.3 2.4 -0.3
v 0.3 2.6 -0.3
v 0.3 2.7 -0.3
v 0.3 2.8 -0.3
v 0.5 2.2 -0.3
v 0.5 2.3 -0.3
v 0.5 2.5 -0.3
v 0.5 2.6 -0.3
v 0.5 2.7 -0.3
v 0.5 2.8 -0.3
v 0.6 2.2 -0.3
v 0.6 2.3 -0.3
v 0.6 2.4 -0.3
v 0.6 2.5 -0.3
v 0.6 2.6 -0.3
v 0.6 2.7 -0.3
v 0.7 2.2 -0.3
v 0.7 2.3 -0.3
v 0.7 2.4 -0.3
v 0.7 2.5 -0.3
v 0.7 2.6 -0.3
v 0.2 2.7 -0.4
v 0.2 2.8 -0.4
v 0.3 2.3 -0.4
v 0.3 2.7 -0.4
v 0.3 2.8 -0.4
v 0.5 2.3 -0.4
v 0.5 2.7 -0.4
v 0.5 2.8 -0.4
v 0.6 2.7 -0.4
v 0.6 2.8 -0.4
v 0 2 0
v 0.2 2 0
v 0.6 2 0
v 0.8 2 0
v 0 2 -0.2
v 0.2 2 -0.2
v 0.6 2 -0.2
v 0.8 2 -0.2
v 0.3 2.2 -0.1
v 0.5 2.2 -0.1
v 0.1 2.2 -0.2
v 0.2 2.2 -0.2
v 0.6 2.2 -0.2
v 0.7 2.2 -0.2
v 0.1 2.2 -0.3
v 0.2 2.2 -0.3
v 0.3 2.2 -0.3
v 0.5 2.2 -0.3
v 0.6 2.2 -0.3
v 0.7 2.2 -0.3
v 0.3 2.3 0
v 0.5 2.3 0
v 0.2 2.3 -0.1
v 0.3 2.3 -0.1
v 0.5 2.3 -0.1
v 0.6 2.3 -0.1
v 0.6 2.3 -0.2
v 0.2 2.3 -0.3
v 0.3 2.3 -0.3
v 0.5 2.3 -0.3
v 0.6 2.3 -0.3
v 0.3 2.3 -0.4
v 0.5 2.3 -0.4
v 0 2.5 0
v 0.1 2.5 0
v 0.7 2.5 0
v 0.8 2.5 0
v 0 2.5 -0.1
v 0.1 2.5 -0.1
v 0.2 2.5 -0.1
v 0.6 2.5 -0.1
v 0.7 2.5 -0.1
v 0 2.5 -0.2
v 0.1 2.5 -0.2
v 0.6 2.5 -0.2
v 0.7 2.5 -0.2
v 0.8 2.5 -0.2
v 0.1 2.5 -0.3
v 0.2 2.5 -0.3
v 0.6 2.5 -0.3
v 0.7 2.5 -0.3
v 0.2 2.7 -0.3
v 0.3 2.7 -0.3
v 0.5 2.7 -0.3
v 0.6 2.7 -0.3
v 0.2 2.7 -0.4
v 0.3 2.7 -0.4
v 0.5 2.7 -0.4
v 0.6 2.7 -0.4
v 0 2.1 0
v 0.1 2.1 0
v 0.7 2.1 0
v 0.8 2.1 0
v 0.1 2.1 -0.1
v 0.7 2.1 -0.1
v 0 2.1 -0.2
v 0.1 2.1 -0.2
v 0.7 2.1 -0.2
v 0.8 2.1 -0.2
v 0.1 2.3 0
v 0.2 2.3 0
v 0.6 2.3 0
v 0.7 2.3 0
v 0.1 2.3 -0.1
v 0.2 2.3 -0.1
v 0.6 2.3 -0.1
v 0.7 2.3 -0.1
v 0.1 2.4 -0.1
v 0.2 2.4 -0.1
v 0.6 2.4 -0.1
v 0.7 2.4 -0.1
v 0.6 2.4 -0.2
v 0.1 2.4 -0.3
v 0.2 2.4 -0.3
v 0.6 2.4 -0.3
v 0.7 2.4 -0.3
v 0.1 2.6 -0.1
v 0.2 2.6 -0.1
v 0.6 2.6 -0.1
v 0.7 2.6 -0.1
v 0.1 2.6 -0.2
v 0.6 2.6 -0.2
v 0.7 2.6 -0.2
v 0.1 2.6 -0.3
v 0.2 2.6 -0.3
v 0.6 2.6 -0.3
v 0.7 2.6 -0.3
v 0.3 2.7 0
v 0.5 2.7 0
v 0.2 2.7 -0.1
v 0.3 2.7 -0.1
v 0.5 2.7 -0.1
v 0.6 2.7 -0.1
v 0.3 2.7 -0.2
v 0.5 2.7 -0.2
v 0.6 2.7 -0.2
v 0.2 2.7 -0.3
v 0.3 2.7 -0.3
v 0.5 2.7 -0.3
v 0.6 2.7 -0.3
v 0.3 2.7 -0.4
v 0.5 2.7 -0.4
v 0 2.8 0
v 0.1 2.8 0
v 0.7 2.8 0
v 0.8 2.8 0
v 0.3 2.8 -0.1
v 0.5 2.8 -0.1
v 0 2.8 -0.2
v 0.1 2.8 -0.2
v 0.3 2.8 -0.2
v 0.5 2.8 -0.2
v 0.7 2.8 -0.2
v 0.8 2.8 -0.2
v 0.2 2.8 -0.3
v 0.3 2.8 -0.3
v 0.5 2.8 -0.3
v 0.6 2.8 -0.3
v 0.2 2.8 -0.4
v 0.3 2.8 -0.4
v 0.5 2.8 -0.4
v 0.6 2.8 -0.4

# faces
f 3/4/1 2/4/1 1/4/1
f 4/4/1 2/4/1 3/4/1
f 8/1/1 6/1/1 5/1/1
f 8/5/1 7/5/1 6/5/1
f 9/5/1 7/5/1 8/5/1
f 10/1/1 8/1/1 5/1/1
f 10/1/1 9/1/1 8/1/1
f 11/1/1 9/1/1 10/1/1
f 12/4/1 11/4/1 10/4/1
f 13/4/1 11/4/1 12/4/1
f 17/1/1 15/1/1 14/1/1
f 18/5/1 16/5/1 15/5/1
f 18/1/1 15/1/1 17/1/1
f 19/5/1 16/5/1 18/5/1
f 21/5/1 18/5/1 17/5/1
f 22/1/1 20/1/1 19/1/1
f 22/5/1 18/5/1 21/5/1
f 22/1/1 19/1/1 18/1/1
f 23/1/1 20/1/1 22/1/1
f 24/1/1 20/1/1 23/1/1
f 27/1/1 26/1/1 25/1/1
f 28/1/1 26/1/1 27/1/1
f 31/1/1 30/1/1 29/1/1
f 32/1/1 30/1/1 31/1/1
f 35/5/1 34/5/1 33/5/1
f 36/5/1 34/5/1 35/5/1
f 38/3/1 37/3/1 36/3/1
f 39/3/1 37/3/1 38/3/1
f 43/4/1 41/4/1 40/4/1
f 44/4/1 41/4/1 43/4/1
f 46/2/1 43/2/1 42/2/1
f 47/2/1 45/2/1 44/2/1
f 48/2/1 46/2/1 42/2/1
f 49/2/1 45/2/1 47/2/1
f 50/2/1 48/2/1 42/2/1
f 51/2/1 48/2/1 50/2/1
f 53/2/1 45/2/1 49/2/1
f 54/2/1 45/2/1 53/2/1
f 55/4/1 52/4/1 51/4/1
f 56/2/1 53/2/1 52/2/1
f 56/4/1 52/4/1 55/4/1
f 57/2/1 53/2/1 56/2/1
f 60/3/1 59/3/1 58/3/1
f 61/3/1 59/3/1 60/3/1
f 64/4/1 63/4/1 62/4/1
f 65/4/1 63/4/1 64/4/1
f 66/4/1 63/4/1 65/4/1
f 67/5/1 65/5/1 64/5/1
f 68/1/1 66/1/1 65/1/1
f 68/5/1 65/5/1 67/5/1
f 69/1/1 66/1/1 68/1/1
f 71/1/1 69/1/1 68/1/1
f 71/1/1 68/1/1 67/1/1
f 72/1/1 69/1/1 71/1/1
f 73/5/1 70/5/1 69/5/1
f 73/1/1 69/1/1 72/1/1
f 74/5/1 70/5/1 73/5/1
f 77/1/1 76/1/1 75/1/1
f 78/1/1 76/1/1 77/1/1
f 80/5/1 78/5/1 77/5/1
f 80/5/1 79/5/1 78/5/1
f 81/5/1 79/5/1 80/5/1
f 82/4/1 81/4/1 80/4/1
f 83/4/1 81/4/1 82/4/1
f 84/1/2 85/1/2 86/1/2
f 84/1/2 86/1/2 88/1/2
f 86/1/2 87/1/2 88/1/2
f 88/1/2 87/1/2 89/1/2
f 88/4/2 89/4/2 90/4/2
f 90/4/2 89/4/2 91/4/2
f 92/4/2 93/4/2 94/4/2
f 94/4/2 93/4/2 95/4/2
f 95/4/2 93/4/2 96/4/2
f 94/1/2 95/1/2 97/1/2
f 95/5/2 96/5/2 98/5/2
f 97/1/2 95/1/2 98/1/2
f 98/5/2 96/5/2 99/5/2
f 97/5/2 98/5/2 101/5/2
f 98/1/2 99/1/2 102/1/2
f 101/5/2 98/5/2 102/5/2
f 99/1/2 100/1/2 102/1/2
f 102/1/2 100/1/2 103/1/2
f 104/3/2 105/3/2 106/3/2
f 106/3/2 105/3/2 107/3/2
f 108/4/2 109/4/2 111/4/2
f 111/4/2 109/4/2 112/4/2
f 110/2/2 111/2/2 114/2/2
f 110/2/2 114/2/2 115/2/2
f 112/2/2 113/2/2 116/2/2
f 110/2/2 115/2/2 117/2/2
f 116/2/2 113/2/2 118/2/2
f 110/2/2 117/2/2 119/2/2
f 119/2/2 117/2/2 120/2/2
f 118/2/2 113/2/2 122/2/2
f 122/2/2 113/2/2 123/2/2
f 120/4/2 121/4/2 124/4/2
f 121/2/2 122/2/2 125/2/2
f 124/4/2 121/4/2 125/4/2
f 125/2/2 122/2/2 126/2/2
f 127/5/2 128/5/2 130/5/2
f 128/1/2 129/1/2 131/1/2
f 130/5/2 128/5/2 131/5/2
f 131/1/2 129/1/2 132/1/2
f 133/5/2 134/5/2 136/5/2
f 134/1/2 135/1/2 137/1/2
f 136/5/2 134/5/2 137/5/2
f 137/1/2 135/1/2 138/1/2
f 138/3/2 139/3/2 140/3/2
f 140/3/2 139/3/2 141/3/2
f 142/5/2 143/5/2 145/5/2
f 143/1/2 144/1/2 146/1/2
f 145/5/2 143/5/2 146/5/2
f 146/1/2 144/1/2 147/1/2
f 145/1/2 146/1/2 149/1/2
f 146/1/2 147/1/2 149/1/2
f 149/1/2 147/1/2 150/1/2
f 147/5/2 148/5/2 151/5/2
f 150/1/2 147/1/2 151/1/2
f 151/5/2 148/5/2 152/5/2
f 150/1/2 151/1/2 153/1/2
f 151/1/2 152/1/2 153/1/2
f 153/1/2 152/1/2 154/1/2
f 155/1/2 156/1/2 157/1/2
f 157/1/2 156/1/2 158/1/2
f 159/4/2 160/4/2 161/4/2
f 161/4/2 160/4/2 162/4/2
f 163/1/2 164/1/2 165/1/2
f 165/1/2 164/1/2 166/1/2
f 165/5/2 166/5/2 167/5/2
f 167/5/2 166/5/2 168/5/2
f 167/4/2 168/4/2 169/4/2
f 169/4/2 168/4/2 170/4/2
f 176/4/3 172/4/3 171/4/3
f 179/1/3 174/1/3 173/1/3
f 180/4/3 175/4/3 174/4/3
f 180/1/3 174/1/3 179/1/3
f 181/4/3 175/4/3 180/4/3
f 182/4/3 176/4/3 171/4/3
f 183/1/3 177/1/3 176/1/3
f 183/4/3 176/4/3 182/4/3
f 184/5/3 178/5/3 177/5/3
f 184/1/3 177/1/3 183/1/3
f 185/5/3 178/5/3 184/5/3
f 188/2/3 187/2/3 186/2/3
f 189/2/3 187/2/3 188/2/3
f 194/4/3 191/4/3 190/4/3
f 194/5/3 192/5/3 191/5/3
f 195/1/3 193/1/3 192/1/3
f 195/5/3 192/5/3 194/5/3
f 196/1/3 193/1/3 195/1/3
f 201/4/3 194/4/3 190/4/3
f 202/4/3 194/4/3 201/4/3
f 203/1/3 198/1/3 197/1/3
f 204/5/3 199/5/3 198/5/3
f 204/1/3 198/1/3 203/1/3
f 205/4/3 200/4/3 199/4/3
f 205/5/3 199/5/3 204/5/3
f 206/4/3 200/4/3 205/4/3
f 211/1/3 208/1/3 207/1/3
f 212/1/3 208/1/3 211/1/3
f 213/1/3 210/1/3 209/1/3
f 214/1/3 210/1/3 213/1/3
f 217/5/3 212/5/3 211/5/3
f 218/1/3 213/1/3 212/1/3
f 218/1/3 214/1/3 213/1/3
f 218/5/3 212/5/3 217/5/3
f 219/5/3 215/5/3 214/5/3
f 219/1/3 214/1/3 218/1/3
f 220/5/3 215/5/3 219/5/3
f 222/4/3 217/4/3 216/4/3
f 223/4/3 217/4/3 222/4/3
f 227/4/3 221/4/3 220/4/3
f 228/4/3 221/4/3 227/4/3
f 229/1/3 224/1/3 223/1/3
f 230/5/3 225/5/3 224/5/3
f 230/1/3 224/1/3 229/1/3
f 231/1/3 226/1/3 225/1/3
f 231/5/3 225/5/3 230/5/3
f 232/5/3 227/5/3 226/5/3
f 232/1/3 226/1/3 231/1/3
f 233/5/3 227/5/3 232/5/3
f 234/1/3 230/1/3 229/1/3
f 235/1/3 230/1/3 234/1/3
f 236/1/3 232/1/3 231/1/3
f 237/1/3 232/1/3 236/1/3
f 240/3/3 239/3/3 238/3/3
f 241/3/3 239/3/3 240/3/3
f 244/3/3 243/3/3 242/3/3
f 245/3/3 243/3/3 244/3/3
f 246/4/4 247/4/4 252/4/4
f 248/5/4 249/5/4 254/5/4
f 249/1/4 250/1/4 255/1/4
f 254/5/4 249/5/4 255/5/4
f 250/4/4 251/4/4 256/4/4
f 255/1/4 250/1/4 256/1/4
f 256/4/4 251/4/4 257/4/4
f 246/4/4 252/4/4 258/4/4
f 252/5/4 253/5/4 259/5/4
f 258/4/4 252/4/4 259/4/4
f 259/5/4 253/5/4 260/5/4
f 261/4/4 262/4/4 264/4/4
f 262/1/4 263/1/4 264/1/4
f 264/1/4 263/1/4 265/1/4
f 261/4/4 264/4/4 270/4/4
f 270/4/4 264/4/4 271/4/4
f 266/1/4 267/1/4 272/1/4
f 267/5/4 268/5/4 273/5/4
f 272/1/4 267/1/4 273/1/4
f 268/4/4 269/4/4 274/4/4
f 273/5/4 268/5/4 274/5/4
f 274/4/4 269/4/4 275/4/4
f 276/1/4 277/1/4 280/1/4
f 280/1/4 277/1/4 281/1/4
f 281/1/4 277/1/4 282/1/4
f 278/1/4 279/1/4 283/1/4
f 283/1/4 279/1/4 284/1/4
f 281/5/4 282/5/4 287/5/4
f 283/1/4 284/1/4 288/1/4
f 282/1/4 283/1/4 288/1/4
f 287/5/4 282/5/4 288/5/4
f 284/5/4 285/5/4 289/5/4
f 288/1/4 284/1/4 289/1/4
f 289/5/4 285/5/4 290/5/4
f 286/4/4 287/4/4 292/4/4
f 292/4/4 287/4/4 293/4/4
f 290/2/4 291/2/4 296/2/4
f 296/2/4 291/2/4 297/2/4
f 293/1/4 294/1/4 299/1/4
f 299/1/4 294/1/4 300/1/4
f 294/5/4 295/5/4 301/5/4
f 300/1/4 294/1/4 301/1/4
f 295/1/4 296/1/4 302/1/4
f 301/5/4 295/5/4 302/5/4
f 302/1/4 296/1/4 303/1/4
f 298/5/4 299/5/4 304/5/4
f 299/1/4 300/1/4 305/1/4
f 304/5/4 299/5/4 305/5/4
f 305/1/4 300/1/4 306/1/4
f 301/1/4 302/1/4 307/1/4
f 307/1/4 302/1/4 308/1/4
f 309/3/4 310/3/4 312/3/4
f 312/3/4 310/3/4 313/3/4
f 311/2/4 312/2/4 314/2/4
f 314/2/4 312/2/4 315/2/4
f 315/3/4 316/3/4 317/3/4
f 317/3/4 316/3/4 318/3/4
f 323/4/5 320/4/5 319/4/5
f 324/4/5 320/4/5 323/4/5
f 325/4/5 322/4/5 321/4/5
f 326/4/5 322/4/5 325/4/5
f 333/1/5 330/1/5 329/1/5
f 334/1/5 330/1/5 333/1/5
f 335/4/5 328/4/5 327/4/5
f 336/4/5 328/4/5 335/4/5
f 337/5/5 332/5/5 331/5/5
f 338/5/5 332/5/5 337/5/5
f 342/2/5 340/2/5 339/2/5
f 343/2/5 340/2/5 342/2/5
f 345/1/5 344/1/5 343/1/5
f 346/5/5 342/5/5 341/5/5
f 347/5/5 342/5/5 346/5/5
f 348/1/5 345/1/5 343/1/5
f 349/1/5 345/1/5 348/1/5
f 350/2/5 348/2/5 347/2/5
f 351/2/5 348/2/5 350/2/5
f 356/1/5 353/1/5 352/1/5
f 357/1/5 353/1/5 356/1/5
f 360/1/5 355/1/5 354/1/5
f 361/5/5 357/5/5 356/5/5
f 362/1/5 358/1/5 357/1/5
f 362/5/5 357/5/5 361/5/5
f 363/1/5 360/1/5 359/1/5
f 364/1/5 355/1/5 360/1/5
f 364/1/5 360/1/5 363/1/5
f 365/1/5 355/1/5 364/1/5
f 366/1/5 358/1/5 362/1/5
f 367/1/5 358/1/5 366/1/5
f 368/1/5 364/1/5 363/1/5
f 369/1/5 364/1/5 368/1/5
f 374/3/5 371/3/5 370/3/5
f 375/3/5 371/3/5 374/3/5
f 376/3/5 373/3/5 372/3/5
f 377/3/5 373/3/5 376/3/5
f 378/4/6 379/4/6 382/4/6
f 380/4/6 381/4/6 383/4/6
f 378/4/6 382/4/6 384/4/6
f 384/4/6 382/4/6 385/4/6
f 383/4/6 381/4/6 386/4/6
f 386/4/6 381/4/6 387/4/6
f 388/5/6 389/5/6 392/5/6
f 392/5/6 389/5/6 393/5/6
f 390/1/6 391/1/6 394/1/6
f 394/1/6 391/1/6 395/1/6
f 398/1/6 399/1/6 400/1/6
f 396/1/6 397/1/6 401/1/6
f 401/1/6 397/1/6 402/1/6
f 400/1/6 399/1/6 403/1/6
f 403/1/6 399/1/6 404/1/6
f 405/1/6 406/1/6 409/1/6
f 407/1/6 408/1/6 410/1/6
f 410/1/6 408/1/6 411/1/6
f 409/1/6 406/1/6 412/1/6
f 412/1/6 406/1/6 413/1/6
f 410/1/6 411/1/6 414/1/6
f 414/1/6 411/1/6 415/1/6
f 416/2/6 417/2/6 419/2/6
f 419/2/6 417/2/6 420/2/6
f 418/5/6 419/5/6 422/5/6
f 420/5/6 421/5/6 423/5/6
f 423/5/6 421/5/6 424/5/6
f 418/5/6 422/5/6 425/5/6
f 425/5/6 422/5/6 426/5/6
f 423/1/6 424/1/6 427/1/6
f 427/1/6 424/1/6 428/1/6
f 426/2/6 427/2/6 429/2/6
f 429/2/6 427/2/6 430/2/6
f 431/4/6 432/4/6 437/4/6
f 437/4/6 432/4/6 438/4/6
f 435/4/6 436/4/6 439/4/6
f 439/4/6 436/4/6 440/4/6
f 433/4/6 434/4/6 441/4/6
f 441/4/6 434/4/6 442/4/6
f 439/2/6 440/2/6 444/2/6
f 444/2/6 440/2/6 445/2/6
f 443/3/6 444/3/6 447/3/6
f 447/3/6 444/3/6 448/3/6
f 445/3/6 446/3/6 449/3/6
f 449/3/6 446/3/6 450/3/6
